<svg xmlns="http://www.w3.org/2000/svg" width="800" height="600" viewBox="0 0 800 600"><rect width="100%" height="100%" fill="#ffffff"/><rect x="40" y="24" width="720" height="44" rx="8" fill="#2c5f8a"/><text x="400" y="53" fill="#ffffff" font-size="22" font-weight="700" text-anchor="middle" font-family="'Noto Sans KR', sans-serif">용도별/현장별 선택 기준표</text><rect x="40" y="70" width="720" height="52" fill="#2c5f8a"/><rect x="40" y="70" width="220" height="52" fill="#2c5f8a" stroke="#cccccc"/><text x="150" y="103" fill="#ffffff" font-size="18" font-weight="700" text-anchor="middle" font-family="'Noto Sans KR', sans-serif">조건</text><rect x="260" y="70" width="160" height="52" fill="#2c5f8a" stroke="#cccccc"/><text x="340" y="103" fill="#ffffff" font-size="18" font-weight="700" text-anchor="middle" font-family="'Noto Sans KR', sans-serif">LVB</text><rect x="420" y="70" width="160" height="52" fill="#2c5f8a" stroke="#cccccc"/><text x="500" y="103" fill="#ffffff" font-size="18" font-weight="700" text-anchor="middle" font-family="'Noto Sans KR', sans-serif">LVL</text><rect x="580" y="70" width="180" height="52" fill="#2c5f8a" stroke="#cccccc"/><text x="670" y="103" fill="#ffffff" font-size="18" font-weight="700" text-anchor="middle" font-family="'Noto Sans KR', sans-serif">합판</text><rect x="40" y="122" width="720" height="56" fill="#ffffff" stroke="#cccccc"/><rect x="40" y="122" width="220" height="56" fill="#ffffff" stroke="#cccccc"/><text x="58" y="156" fill="#1a1a1a" font-size="17" font-weight="500" text-anchor="start" font-family="'Noto Sans KR', sans-serif">스팬 구간별 추천 자재</text><rect x="260" y="122" width="160" height="56" fill="#ffffff" stroke="#cccccc"/><text x="340" y="158" fill="#f5a623" font-size="26" font-weight="700" text-anchor="middle" font-family="'Noto Sans KR', sans-serif">△</text><rect x="420" y="122" width="160" height="56" fill="#ffffff" stroke="#cccccc"/><text x="500" y="158" fill="#e74c3c" font-size="26" font-weight="700" text-anchor="middle" font-family="'Noto Sans KR', sans-serif">×</text><rect x="580" y="122" width="180" height="56" fill="#ffffff" stroke="#cccccc"/><text x="670" y="158" fill="#2c5f8a" font-size="26" font-weight="700" text-anchor="middle" font-family="'Noto Sans KR', sans-serif">✓</text><rect x="40" y="178" width="720" height="56" fill="#f0f4f8" stroke="#cccccc"/><rect x="40" y="178" width="220" height="56" fill="#f0f4f8" stroke="#cccccc"/><text x="58" y="212" fill="#1a1a1a" font-size="17" font-weight="500" text-anchor="start" font-family="'Noto Sans KR', sans-serif">하중 조건별 적합도 표시</text><rect x="260" y="178" width="160" height="56" fill="#f0f4f8" stroke="#cccccc"/><text x="340" y="214" fill="#e74c3c" font-size="26" font-weight="700" text-anchor="middle" font-family="'Noto Sans KR', sans-serif">×</text><rect x="420" y="178" width="160" height="56" fill="#f0f4f8" stroke="#cccccc"/><text x="500" y="214" fill="#2c5f8a" font-size="26" font-weight="700" text-anchor="middle" font-family="'Noto Sans KR', sans-serif">✓</text><rect x="580" y="178" width="180" height="56" fill="#f0f4f8" stroke="#cccccc"/><text x="670" y="214" fill="#f5a623" font-size="26" font-weight="700" text-anchor="middle" font-family="'Noto Sans KR', sans-serif">△</text><rect x="40" y="234" width="720" height="56" fill="#ffffff" stroke="#cccccc"/><rect x="40" y="234" width="220" height="56" fill="#ffffff" stroke="#cccccc"/><text x="58" y="268" fill="#1a1a1a" font-size="17" font-weight="500" text-anchor="start" font-family="'Noto Sans KR', sans-serif">습기 환경별 권장 여부</text><rect x="260" y="234" width="160" height="56" fill="#ffffff" stroke="#cccccc"/><text x="340" y="270" fill="#2c5f8a" font-size="26" font-weight="700" text-anchor="middle" font-family="'Noto Sans KR', sans-serif">✓</text><rect x="420" y="234" width="160" height="56" fill="#ffffff" stroke="#cccccc"/><text x="500" y="270" fill="#f5a623" font-size="26" font-weight="700" text-anchor="middle" font-family="'Noto Sans KR', sans-serif">△</text><rect x="580" y="234" width="180" height="56" fill="#ffffff" stroke="#cccccc"/><text x="670" y="270" fill="#e74c3c" font-size="26" font-weight="700" text-anchor="middle" font-family="'Noto Sans KR', sans-serif">×</text><rect x="40" y="290" width="720" height="56" fill="#f0f4f8" stroke="#cccccc"/><rect x="40" y="290" width="220" height="56" fill="#f0f4f8" stroke="#cccccc"/><text x="58" y="324" fill="#1a1a1a" font-size="17" font-weight="500" text-anchor="start" font-family="'Noto Sans KR', sans-serif">◎ 권장 / △ 조건부 / × 비권장 기호</text><rect x="260" y="290" width="160" height="56" fill="#f0f4f8" stroke="#cccccc"/><text x="340" y="326" fill="#f5a623" font-size="26" font-weight="700" text-anchor="middle" font-family="'Noto Sans KR', sans-serif">△</text><rect x="420" y="290" width="160" height="56" fill="#f0f4f8" stroke="#cccccc"/><text x="500" y="326" fill="#e74c3c" font-size="26" font-weight="700" text-anchor="middle" font-family="'Noto Sans KR', sans-serif">×</text><rect x="580" y="290" width="180" height="56" fill="#f0f4f8" stroke="#cccccc"/><text x="670" y="326" fill="#2c5f8a" font-size="26" font-weight="700" text-anchor="middle" font-family="'Noto Sans KR', sans-serif">✓</text></svg>